<svg xmlns="http://www.w3.org/2000/svg" xmlns:xlink="http://www.w3.org/1999/xlink" width="500" zoomAndPan="magnify" viewBox="0 0 375 374.999991" height="500" preserveAspectRatio="xMidYMid meet" version="1.0"><defs><g/><clipPath id="c9f7f4816f"><path d="M 112.5 132.152344 L 262.5 132.152344 L 262.5 243 L 112.5 243 Z M 112.5 132.152344 " clip-rule="nonzero"/></clipPath></defs><g clip-path="url(#c9f7f4816f)"><path fill="#a941b6" d="M 173.261719 176.789062 L 157.117188 160.644531 L 133.0625 184.699219 L 129.527344 181.164062 L 157.117188 153.574219 L 176.792969 173.253906 L 217.878906 132.175781 L 262.492188 176.789062 L 254.582031 184.699219 L 251.050781 181.164062 L 255.425781 176.789062 L 217.878906 139.242188 L 149.949219 207.167969 L 157.117188 214.335938 C 177.308594 194.144531 197.496094 173.953125 217.691406 153.761719 L 217.875 153.574219 L 262.492188 198.191406 L 217.878906 242.808594 L 190.289062 215.21875 L 193.824219 211.683594 L 217.878906 235.742188 L 255.425781 198.191406 L 228.578125 171.34375 L 201.730469 198.195312 L 217.875 214.339844 L 241.929688 190.285156 L 245.464844 193.816406 L 217.878906 221.40625 L 198.199219 201.726562 L 157.117188 242.808594 L 112.5 198.195312 L 120.40625 190.285156 L 123.941406 193.820312 L 119.566406 198.195312 L 157.113281 235.742188 L 225.039062 167.8125 L 217.875 160.648438 C 197.683594 180.839844 177.488281 201.03125 157.296875 221.222656 L 157.113281 221.40625 L 112.5 176.789062 L 157.117188 132.175781 L 184.703125 159.761719 L 181.167969 163.296875 L 157.117188 139.242188 L 119.570312 176.789062 L 146.414062 203.636719 Z M 173.261719 176.789062 " fill-opacity="1" fill-rule="evenodd"/></g><g fill="#ffffff" fill-opacity="1"><g transform="translate(99.744161, 195.749987)"><g><path d="M 1.375 -18.5 L 9.296875 -18.5 L 9.296875 -15.15625 L 7.34375 -15.15625 L 7.34375 -3.34375 L 9.296875 -3.34375 L 9.296875 0 L 1.375 0 L 1.375 -3.34375 L 3.296875 -3.34375 L 3.296875 -15.15625 L 1.375 -15.15625 Z M 1.375 -18.5 "/></g></g></g><g fill="#ffffff" fill-opacity="1"><g transform="translate(117.130347, 195.749987)"><g><path d="M 13.078125 -18.5 L 20.109375 -18.5 L 20.109375 -15.15625 L 18.609375 -15.15625 L 18.609375 0 L 14.546875 0 L 6.84375 -11.96875 L 6.84375 -3.34375 L 8.40625 -3.34375 L 8.40625 0 L 1.375 0 L 1.375 -3.34375 L 2.90625 -3.34375 L 2.90625 -15.15625 L 1.40625 -15.15625 L 1.40625 -18.5 L 7 -18.5 L 14.65625 -6.390625 L 14.65625 -15.15625 L 13.078125 -15.15625 Z M 13.078125 -18.5 "/></g></g></g><g fill="#ffffff" fill-opacity="1"><g transform="translate(145.354683, 195.749987)"><g><path d="M 1.375 -18.5 L 15.703125 -18.5 L 15.703125 -12.1875 L 11.734375 -12.1875 L 11.734375 -14.796875 L 7.34375 -14.796875 L 7.34375 -10.90625 L 11.140625 -10.90625 L 11.140625 -7.34375 L 7.34375 -7.34375 L 7.34375 -3.34375 L 9.296875 -3.34375 L 9.296875 0 L 1.375 0 L 1.375 -3.34375 L 3.296875 -3.34375 L 3.296875 -14.796875 L 1.375 -14.796875 Z M 1.375 -18.5 "/></g></g></g><g fill="#ffffff" fill-opacity="1"><g transform="translate(168.550511, 195.749987)"><g><path d="M 1.375 -18.5 L 9.296875 -18.5 L 9.296875 -15.15625 L 7.34375 -15.15625 L 7.34375 -3.34375 L 9.296875 -3.34375 L 9.296875 0 L 1.375 0 L 1.375 -3.34375 L 3.296875 -3.34375 L 3.296875 -15.15625 L 1.375 -15.15625 Z M 1.375 -18.5 "/></g></g></g><g fill="#ffffff" fill-opacity="1"><g transform="translate(185.936695, 195.749987)"><g><path d="M 13.078125 -18.5 L 20.109375 -18.5 L 20.109375 -15.15625 L 18.609375 -15.15625 L 18.609375 0 L 14.546875 0 L 6.84375 -11.96875 L 6.84375 -3.34375 L 8.40625 -3.34375 L 8.40625 0 L 1.375 0 L 1.375 -3.34375 L 2.90625 -3.34375 L 2.90625 -15.15625 L 1.40625 -15.15625 L 1.40625 -18.5 L 7 -18.5 L 14.65625 -6.390625 L 14.65625 -15.15625 L 13.078125 -15.15625 Z M 13.078125 -18.5 "/></g></g></g><g fill="#ffffff" fill-opacity="1"><g transform="translate(214.161028, 195.749987)"><g><path d="M 1.375 -18.5 L 9.296875 -18.5 L 9.296875 -15.15625 L 7.34375 -15.15625 L 7.34375 -3.34375 L 9.296875 -3.34375 L 9.296875 0 L 1.375 0 L 1.375 -3.34375 L 3.296875 -3.34375 L 3.296875 -15.15625 L 1.375 -15.15625 Z M 1.375 -18.5 "/></g></g></g><g fill="#ffffff" fill-opacity="1"><g transform="translate(231.547211, 195.749987)"><g><path d="M 4.546875 -3.34375 L 6.46875 -3.34375 L 6.46875 -15.265625 L 4.21875 -15.265625 L 4.21875 -12.875 L 0.25 -12.875 L 0.25 -18.5 L 17.078125 -18.5 L 17.078125 -12.875 L 13.078125 -12.875 L 13.078125 -15.265625 L 10.515625 -15.265625 L 10.515625 -3.34375 L 12.46875 -3.34375 L 12.46875 0 L 4.546875 0 Z M 4.546875 -3.34375 "/></g></g></g><g fill="#ffffff" fill-opacity="1"><g transform="translate(256.500572, 195.749987)"><g><path d="M 0.578125 -18.5 L 8.5 -18.5 L 8.5 -15.15625 L 6.953125 -15.15625 L 9.421875 -10.90625 L 12.046875 -15.15625 L 10.28125 -15.15625 L 10.28125 -18.5 L 18.203125 -18.5 L 18.203125 -15.15625 L 16.828125 -15.15625 L 11.328125 -7.671875 L 11.328125 -3.34375 L 13.578125 -3.34375 L 13.578125 0 L 5.328125 0 L 5.328125 -3.34375 L 7.375 -3.34375 L 7.375 -7.734375 L 2.203125 -15.15625 L 0.578125 -15.15625 Z M 0.578125 -18.5 "/></g></g></g></svg>